<svg xmlns="http://www.w3.org/2000/svg" viewBox="0 0 180 180" width="180" height="180">
  <!-- 背景渐变圆形 -->
  <defs>
    <linearGradient id="bgGradient" x1="0%" y1="0%" x2="100%" y2="100%">
      <stop offset="0%" style="stop-color:#3b82f6;stop-opacity:1" />
      <stop offset="100%" style="stop-color:#1d4ed8;stop-opacity:1" />
    </linearGradient>
    <linearGradient id="iconGradient" x1="0%" y1="0%" x2="100%" y2="100%">
      <stop offset="0%" style="stop-color:#ffffff;stop-opacity:1" />
      <stop offset="100%" style="stop-color:#e5e7eb;stop-opacity:1" />
    </linearGradient>
  </defs>
  
  <!-- 背景圆形 -->
  <circle cx="90" cy="90" r="85" fill="url(#bgGradient)" stroke="#1e40af" stroke-width="4"/>
  
  <!-- 网络连接图标 -->
  <g transform="translate(45, 35)">
    <!-- 信号强度条 -->
    <rect x="0" y="60" width="8" height="20" fill="url(#iconGradient)" opacity="0.7" rx="2"/>
    <rect x="12" y="50" width="8" height="30" fill="url(#iconGradient)" opacity="0.8" rx="2"/>
    <rect x="24" y="40" width="8" height="40" fill="url(#iconGradient)" rx="2"/>
    <rect x="36" y="30" width="8" height="50" fill="url(#iconGradient)" rx="2"/>
    
    <!-- 连接点 -->
    <circle cx="40" cy="25" r="6" fill="url(#iconGradient)"/>
  </g>
  
  <!-- 速度控制齿轮 -->
  <g transform="translate(90, 90)">
    <!-- 外齿轮 -->
    <circle cx="0" cy="0" r="25" fill="none" stroke="url(#iconGradient)" stroke-width="4"/>
    <circle cx="0" cy="0" r="8" fill="url(#iconGradient)"/>
    
    <!-- 齿轮齿 -->
    <rect x="-4" y="-35" width="8" height="8" fill="url(#iconGradient)" rx="2"/>
    <rect x="-4" y="27" width="8" height="8" fill="url(#iconGradient)" rx="2"/>
    <rect x="-35" y="-4" width="8" height="8" fill="url(#iconGradient)" rx="2"/>
    <rect x="27" y="-4" width="8" height="8" fill="url(#iconGradient)" rx="2"/>
    
    <!-- 速度箭头 -->
    <path d="M-20 0 L-30 -10 M-20 0 L-30 10" stroke="url(#iconGradient)" stroke-width="3" fill="none" stroke-linecap="round"/>
    <path d="M20 0 L30 -10 M20 0 L30 10" stroke="url(#iconGradient)" stroke-width="3" fill="none" stroke-linecap="round"/>
  </g>
  
  <!-- 装饰性光点 -->
  <circle cx="30" cy="30" r="4" fill="url(#iconGradient)" opacity="0.5"/>
  <circle cx="150" cy="30" r="4" fill="url(#iconGradient)" opacity="0.5"/>
  <circle cx="30" cy="150" r="4" fill="url(#iconGradient)" opacity="0.5"/>
  <circle cx="150" cy="150" r="4" fill="url(#iconGradient)" opacity="0.5"/>
</svg>
