<svg xmlns="http://www.w3.org/2000/svg" viewBox="0 0 64 64" width="64" height="64">
  <!-- 背景圆形 -->
  <circle cx="32" cy="32" r="30" fill="#2563eb" stroke="#1d4ed8" stroke-width="2"/>
  
  <!-- 网络连接图标 -->
  <g transform="translate(16, 12)">
    <!-- 信号强度条 -->
    <rect x="0" y="20" width="3" height="8" fill="#ffffff" opacity="0.8"/>
    <rect x="5" y="16" width="3" height="12" fill="#ffffff" opacity="0.9"/>
    <rect x="10" y="12" width="3" height="16" fill="#ffffff"/>
    <rect x="15" y="8" width="3" height="20" fill="#ffffff"/>
    
    <!-- 连接点 -->
    <circle cx="17.5" cy="6" r="2" fill="#ffffff"/>
  </g>
  
  <!-- 速度控制图标 -->
  <g transform="translate(32, 20)">
    <!-- 齿轮图标 -->
    <circle cx="16" cy="16" r="8" fill="none" stroke="#ffffff" stroke-width="2"/>
    <circle cx="16" cy="16" r="3" fill="#ffffff"/>
    
    <!-- 齿轮齿 -->
    <rect x="14" y="4" width="4" height="3" fill="#ffffff"/>
    <rect x="14" y="25" width="4" height="3" fill="#ffffff"/>
    <rect x="4" y="14" width="3" height="4" fill="#ffffff"/>
    <rect x="25" y="14" width="3" height="4" fill="#ffffff"/>
    
    <!-- 速度箭头 -->
    <path d="M8 16 L12 12 M8 16 L12 20" stroke="#ffffff" stroke-width="2" fill="none" stroke-linecap="round"/>
    <path d="M24 16 L20 12 M24 16 L20 20" stroke="#ffffff" stroke-width="2" fill="none" stroke-linecap="round"/>
  </g>
  
  <!-- 装饰性元素 -->
  <circle cx="12" cy="12" r="1.5" fill="#ffffff" opacity="0.6"/>
  <circle cx="52" cy="12" r="1.5" fill="#ffffff" opacity="0.6"/>
  <circle cx="12" cy="52" r="1.5" fill="#ffffff" opacity="0.6"/>
  <circle cx="52" cy="52" r="1.5" fill="#ffffff" opacity="0.6"/>
</svg>
